<?xml version="1.0" encoding="UTF-8" standalone="no"?>
<!-- Created with Inkscape (http://www.inkscape.org/) -->

<svg
   width="2560"
   height="1080"
   viewBox="0 0 677.33334 285.75"
   version="1.1"
   id="svg5"
   xml:space="preserve"
   inkscape:version="1.2.2 (b0a8486541, 2022-12-01)"
   sodipodi:docname="wallpaper.svg"
   xmlns:inkscape="http://www.inkscape.org/namespaces/inkscape"
   xmlns:sodipodi="http://sodipodi.sourceforge.net/DTD/sodipodi-0.dtd"
   xmlns="http://www.w3.org/2000/svg"
   xmlns:svg="http://www.w3.org/2000/svg"><sodipodi:namedview
     id="namedview7"
     pagecolor="#505050"
     bordercolor="#eeeeee"
     borderopacity="1"
     inkscape:showpageshadow="false"
     inkscape:pageopacity="0"
     inkscape:pagecheckerboard="true"
     inkscape:deskcolor="#505050"
     inkscape:document-units="mm"
     showgrid="false"
     showborder="false"
     borderlayer="false"
     shape-rendering="auto"
     inkscape:zoom="0.5"
     inkscape:cx="1197"
     inkscape:cy="502"
     inkscape:window-width="1908"
     inkscape:window-height="1050"
     inkscape:window-x="4"
     inkscape:window-y="4"
     inkscape:window-maximized="1"
     inkscape:current-layer="layer1"
     showguides="false"><sodipodi:guide
       position="338.66666,285.75"
       orientation="1,0"
       id="guide845"
       inkscape:locked="false" /></sodipodi:namedview><defs
     id="defs2" /><g
     inkscape:label="Layer 1"
     inkscape:groupmode="layer"
     id="layer1"><rect
       style="fill:#282828;stroke:none;stroke-width:2.11089;stroke-dasharray:2.11089, 2.11089;stroke-dashoffset:0;fill-opacity:1"
       id="rect1762"
       width="677.33331"
       height="285.75"
       x="0"
       y="-1.7763568e-15" /><path
       id="rect291"
       style="fill:none;stroke:#3c3836;stroke-width:1.32292;stroke-linejoin:bevel;fill-opacity:1;stroke-opacity:1"
       d="M 234.64201 38.800732 A 104.07449 104.07449 0 0 1 131.55683 142.83779 A 104.07449 104.07449 0 0 1 234.64201 246.89966 A 104.07449 104.07449 0 0 1 234.63942 246.94927 L 234.64201 246.94927 A 104.07449 104.07449 0 0 1 338.71628 142.875 A 104.07449 104.07449 0 0 1 234.64201 38.800732 z " /><path
       id="path1177"
       style="fill:none;fill-opacity:1;stroke:#3c3836;stroke-width:1.32292;stroke-linejoin:bevel;stroke-opacity:1"
       d="M 441.80146,38.837942 A 104.07449,104.07449 0 0 1 338.71628,142.875 a 104.07449,104.07449 0 0 1 103.08518,104.06187 104.07449,104.07449 0 0 1 -0.003,0.0496 h 0.003 A 104.07449,104.07449 0 0 1 545.87573,142.91221 104.07449,104.07449 0 0 1 441.80146,38.837942 Z" /></g></svg>
